<?xml version="1.0" standalone="no"?>
<!DOCTYPE svg PUBLIC "-//W3C//DTD SVG 20010904//EN"
 "http://www.w3.org/TR/2001/REC-SVG-20010904/DTD/svg10.dtd">
<svg version="1.0" xmlns="http://www.w3.org/2000/svg"
 width="500.000000pt" height="500.000000pt" viewBox="0 0 500.000000 500.000000"
 preserveAspectRatio="xMidYMid meet">
<metadata>
Created by potrace 1.16, written by Peter Selinger 2001-2019
</metadata>
<g transform="translate(0.000000,500.000000) scale(0.100000,-0.100000)"
fill="#000000" stroke="none">
<path d="M1700 4789 c-89 -8 -159 -33 -209 -75 l-41 -36 0 -2183 0 -2183 37
-32 c20 -18 62 -45 93 -59 l55 -26 670 -5 c369 -3 760 -3 870 0 l201 5 66 33
c37 18 76 45 88 59 20 26 20 27 20 2207 l0 2182 -27 25 c-42 38 -75 56 -134
73 -46 13 -172 16 -839 18 -432 2 -814 0 -850 -3z m242 -136 c4 -23 14 -53 23
-66 33 -51 46 -52 535 -52 489 0 502 1 535 52 9 13 19 43 23 66 l8 42 114 3
c183 5 257 -24 307 -121 l28 -52 1 -710 c1 -390 -1 -698 -3 -682 -2 15 -10 27
-16 27 -7 0 -6 4 3 11 11 8 12 12 3 16 -7 2 -13 12 -13 20 0 9 -6 13 -14 10
-9 -4 -17 2 -21 13 -3 10 -12 20 -19 23 -7 3 -19 26 -27 52 -8 25 -22 54 -33
63 -12 10 -16 11 -11 3 5 -9 3 -12 -6 -9 -8 3 -14 14 -13 26 0 12 -3 19 -8 16
-4 -3 -8 0 -8 6 0 6 -5 8 -12 4 -8 -5 -9 -2 -5 10 5 12 0 19 -18 26 -24 9 -27
14 -29 50 -1 8 -9 15 -19 15 -10 0 -24 10 -31 23 -7 12 -15 19 -20 15 -4 -4
-4 0 0 10 4 13 1 17 -15 17 -12 0 -21 5 -21 11 0 6 -27 37 -60 70 -33 32 -60
64 -60 69 0 6 -7 10 -15 10 -15 0 -61 39 -47 41 4 0 -4 4 -16 10 -13 5 -26 18
-29 29 -3 13 -14 20 -29 20 -13 0 -24 5 -24 11 0 5 -4 7 -10 4 -5 -3 -10 1
-10 9 0 9 -9 16 -20 16 -11 0 -20 6 -20 13 0 12 -58 44 -72 39 -5 -1 -8 5 -8
13 0 9 -11 20 -25 25 -14 5 -25 14 -25 20 0 5 -7 10 -15 10 -8 0 -24 9 -36 21
-12 12 -27 18 -38 14 -9 -3 -26 3 -37 13 -10 10 -27 16 -37 14 -10 -2 -29 3
-42 12 -13 9 -31 16 -39 16 -8 0 -20 8 -25 18 -10 16 -10 15 -11 -3 -1 -11 -4
-15 -6 -8 -3 7 -11 10 -18 7 -7 -3 -33 4 -58 15 -26 11 -49 17 -52 14 -3 -3
-12 0 -21 7 -10 8 -15 9 -15 1 0 -15 -16 -14 -31 2 -7 7 -28 11 -49 9 -21 -2
-48 1 -60 8 -17 9 -21 9 -15 0 5 -9 2 -10 -13 -6 -33 11 -132 14 -126 5 3 -5
-12 -9 -33 -9 -66 0 -113 -5 -113 -12 0 -4 -9 -5 -20 -3 -11 2 -20 1 -20 -3 0
-4 -14 -9 -32 -10 -17 -2 -38 -8 -45 -14 -7 -6 -13 -7 -13 -4 0 4 -5 4 -12 0
-7 -4 -24 -8 -38 -9 -14 -1 -35 -7 -46 -13 -12 -6 -35 -14 -51 -17 -28 -4 -31
-2 -37 26 -11 57 -7 68 35 94 74 48 223 118 336 159 110 41 112 42 83 53 -21
8 -28 8 -24 1 5 -7 2 -8 -7 -3 -18 11 -81 20 -171 24 -16 1 -28 7 -28 15 0 9
-9 12 -27 10 -15 -1 -32 1 -38 5 -26 20 -93 39 -102 30 -12 -12 -43 15 -43 37
0 24 30 87 53 112 53 57 106 71 262 69 l119 -2 8 -42z m336 -829 c287 -42 540
-172 752 -384 282 -281 420 -653 389 -1050 -48 -607 -484 -1100 -1084 -1226
-132 -28 -413 -26 -545 3 -86 20 -211 61 -282 94 l-28 12 1 221 c1 186 12 402
17 359 1 -7 8 -13 16 -13 8 0 29 -12 47 -27 18 -16 30 -21 25 -13 -4 8 0 6 8
-4 9 -11 16 -16 16 -10 0 5 4 3 8 -3 4 -7 17 -14 27 -16 49 -9 74 -20 79 -34
3 -8 10 -11 16 -8 5 3 16 3 23 -2 6 -4 21 -9 31 -10 11 -2 24 -7 30 -12 6 -4
23 -6 39 -4 15 2 27 -1 27 -7 0 -6 5 -8 10 -5 6 4 18 1 27 -7 9 -7 14 -8 10
-2 -4 7 6 10 28 10 19 -1 35 -5 35 -9 0 -5 6 -5 13 0 19 12 49 14 42 3 -3 -5
3 -10 14 -10 12 0 21 5 21 11 0 5 5 7 10 4 6 -3 10 0 10 7 0 9 3 9 10 -2 7
-12 10 -12 10 -1 0 7 6 11 14 8 8 -3 20 1 27 9 9 11 14 12 20 3 11 -18 37 -19
35 -2 0 9 5 18 13 21 8 2 11 0 8 -6 -4 -5 4 -12 18 -14 13 -3 22 -2 20 2 -6 9
56 40 67 34 4 -3 8 1 9 8 0 7 5 4 10 -7 8 -18 8 -18 6 5 -2 19 -9 26 -37 31
-49 11 -121 44 -113 53 4 4 0 4 -9 1 -9 -4 -19 -2 -23 4 -6 11 1 13 58 14 15
1 27 4 27 8 0 5 18 7 39 6 22 -1 38 0 36 4 -3 3 7 11 20 17 21 10 23 9 19 -6
-4 -14 -3 -13 6 2 10 15 14 16 22 5 7 -10 8 -8 5 9 -5 19 -3 21 9 11 11 -9 14
-9 14 0 0 7 8 11 18 10 9 -2 27 3 40 10 13 7 29 10 36 8 9 -4 12 3 9 21 -2 20
-1 23 5 9 7 -17 9 -17 27 3 11 12 19 25 18 29 -1 3 4 5 12 3 7 -1 16 2 20 8 3
5 1 10 -6 10 -16 0 -1 15 14 15 7 0 11 8 11 18 -1 9 1 17 5 17 4 0 7 9 8 20 1
13 -3 18 -10 14 -7 -3 -5 0 4 8 16 14 14 38 -5 50 -7 5 -6 8 3 8 11 0 11 3 1
15 -7 9 -10 18 -7 22 4 3 1 13 -6 21 -10 13 -9 14 1 8 16 -10 13 25 -3 36 -6
5 -6 8 2 8 6 0 9 9 6 20 -3 11 -10 20 -16 20 -6 0 -7 3 -4 7 4 3 1 13 -6 21
-6 9 -7 13 -1 9 6 -3 11 0 11 8 0 8 -4 12 -8 10 -8 -5 -23 25 -20 39 1 4 -4
15 -11 24 -11 13 -11 14 1 7 17 -10 8 9 -23 45 -14 16 -15 20 -3 11 24 -19 21
-6 -5 20 -13 12 -17 18 -9 14 9 -5 7 1 -4 19 -10 14 -22 26 -27 26 -5 0 -6 5
-3 10 3 6 0 10 -7 10 -9 0 -9 3 2 10 13 8 12 10 -2 10 -11 0 -18 8 -18 19 0
11 -4 23 -10 26 -6 4 -7 -1 -4 -12 5 -15 4 -16 -5 -3 -6 8 -11 21 -11 28 0 18
-26 43 -35 34 -4 -4 -6 -1 -3 7 2 8 -3 22 -11 31 -9 10 -23 26 -32 36 -9 10
-29 28 -43 39 -15 11 -32 25 -39 31 -6 6 -21 9 -32 7 -16 -4 -17 -3 -5 6 8 6
12 11 8 12 -5 1 -12 3 -18 4 -5 1 -15 3 -21 4 -5 0 -7 6 -3 13 4 7 3 8 -5 4
-6 -4 -9 -12 -6 -17 4 -5 0 -9 -8 -9 -8 0 -18 7 -21 16 -5 12 -10 14 -19 5 -9
-7 -24 -8 -45 -1 -18 5 -30 5 -27 0 3 -5 -3 -9 -12 -9 -41 -1 -53 -5 -53 -17
0 -13 -69 -50 -85 -45 -5 1 -7 0 -4 -4 9 -8 -57 -75 -75 -75 -7 0 -20 -8 -27
-17 -8 -10 -9 -14 -2 -10 8 5 11 0 10 -13 -1 -12 -8 -20 -19 -20 -10 0 -18 -8
-19 -17 0 -10 -3 -13 -5 -7 -8 18 32 130 71 200 68 122 223 253 361 307 60 23
184 47 256 48 35 1 50 4 33 6 -16 3 -36 10 -44 16 -12 10 -13 9 -6 -3 4 -8 -1
-6 -12 5 -11 11 -19 23 -17 26 2 3 -3 6 -10 6 -9 0 -12 -7 -8 -15 5 -14 -1
-10 -59 44 -13 12 -19 12 -25 3 -4 -8 -3 -10 4 -5 7 4 12 2 12 -3 0 -14 -17
-14 -25 -1 -4 6 -10 8 -15 5 -4 -3 -11 2 -14 11 -3 8 -11 14 -18 13 -27 -3
-49 1 -44 9 3 5 -1 9 -9 9 -10 0 -13 -8 -9 -26 3 -15 2 -21 -3 -14 -4 6 -22
13 -38 16 -17 2 -38 7 -48 12 -9 4 -29 5 -42 3 -14 -3 -25 -2 -25 3 0 7 -132
6 -150 -1 -3 -1 -9 -3 -15 -4 -82 -14 -95 -19 -85 -31 9 -11 7 -12 -10 -8 -12
3 -25 1 -29 -5 -4 -6 -21 -12 -38 -14 -17 -1 -30 -5 -27 -9 2 -4 -3 -10 -12
-13 -8 -3 -12 -2 -9 4 3 6 -1 7 -9 4 -9 -3 -16 -14 -16 -23 0 -11 -3 -12 -8
-4 -6 10 -16 8 -44 -7 -20 -10 -38 -16 -41 -13 -3 3 -12 -4 -19 -16 -7 -12
-18 -21 -24 -21 -14 0 -46 -35 -39 -43 3 -4 0 -3 -6 1 -6 6 -12 114 -16 284
l-6 275 24 16 c27 18 132 56 224 83 152 43 375 55 553 28z m1238 -2999 c-13
-34 -384 -196 -445 -194 -25 0 -24 1 7 12 18 7 37 19 42 27 5 8 10 11 10 6 0
-6 6 -2 13 9 10 12 22 16 40 13 15 -3 25 -2 22 1 -2 4 17 20 43 36 26 16 53
35 60 42 13 12 28 17 45 14 5 -1 6 2 4 6 -3 5 6 16 19 26 13 10 24 13 24 8 0
-6 7 -8 15 -5 8 4 12 10 9 15 -3 5 0 9 5 9 10 0 48 29 75 56 8 9 12 1 14 -28
2 -22 1 -46 -2 -53z"/>
</g>
</svg>
